<svg width="614" height="614" viewBox="0 0 614 614" fill="none" xmlns="http://www.w3.org/2000/svg">
<g opacity="0.2">
<path opacity="0.2" d="M369.57 350.031C369.57 371.142 413.346 476.393 413.346 476.393C417.029 489.099 429.729 488.298 437.286 465.152L462.359 379.907C475.56 333.668 476.992 323.608 442.971 290.374L397.736 256.197C382.242 244.488 369.563 252.175 369.563 273.286L369.57 350.031Z" fill="#231F20"/>
</g>
<g opacity="0.2">
<path opacity="0.2" d="M301.406 350.031C301.406 371.142 257.63 476.393 257.63 476.393C253.947 489.099 241.248 488.298 233.69 465.152L208.617 379.907C195.416 333.668 193.985 323.608 228.006 290.374L273.24 256.197C288.734 244.488 301.413 252.174 301.413 273.286L301.406 350.031Z" fill="#231F20"/>
</g>
<path d="M356.002 336.463C356.002 357.575 399.778 462.825 399.778 462.825C403.462 475.531 416.161 474.731 423.718 451.585L448.791 366.339C461.993 320.101 463.424 310.04 429.403 276.807L384.169 242.63C368.674 230.921 355.996 238.607 355.996 259.718L356.002 336.463Z" fill="#00B894"/>
<path d="M287.839 336.463C287.839 357.575 244.063 462.825 244.063 462.825C240.379 475.531 227.68 474.731 220.123 451.585L195.05 366.339C181.849 320.101 180.417 310.04 214.438 276.807L259.672 242.63C275.167 230.921 287.846 238.607 287.846 259.718L287.839 336.463Z" fill="#00B894"/>
<g opacity="0.2">
<path opacity="0.2" d="M295.043 422.699C295.043 353.857 334.464 335.439 334.464 335.439C334.464 335.439 373.891 353.85 373.884 422.699C373.878 491.548 343.147 572.289 334.464 572.289C326.045 572.282 295.036 491.548 295.043 422.699Z" fill="#231F20"/>
</g>
<path d="M281.475 409.131C281.475 340.289 320.896 321.871 320.896 321.871C320.896 321.871 360.324 340.283 360.317 409.131C360.31 477.98 329.579 558.721 320.896 558.721C312.477 558.714 281.469 477.98 281.475 409.131Z" fill="#FDBB6E"/>
<path d="M281.469 351.571C281.469 282.729 320.889 264.311 320.889 264.311C320.889 264.311 360.317 282.722 360.31 351.571C360.303 420.42 329.573 501.161 320.889 501.161C312.477 501.161 281.469 420.413 281.469 351.571Z" fill="#FDCB6E"/>
<g opacity="0.2">
<path opacity="0.2" d="M430.176 254.094C430.177 360.057 334.457 426.783 334.457 426.783C334.457 426.783 238.744 360.064 238.738 254.094C238.731 148.125 313.373 62.2212 334.457 62.2212C354.903 62.2212 430.183 148.125 430.176 254.094Z" fill="#231F20"/>
</g>
<path d="M416.609 240.527C416.609 346.49 320.889 413.215 320.889 413.215C320.889 413.215 225.177 346.497 225.17 240.527C225.163 134.557 299.805 48.6535 320.889 48.6535C341.336 48.6535 416.616 134.557 416.609 240.527Z" fill="#00DBB0"/>
<g opacity="0.2">
<path opacity="0.2" d="M344.056 474.751C344.056 485.348 345.06 493.936 334.464 493.936C323.867 493.936 324.871 485.348 324.871 474.751L305.68 321.254C305.68 310.658 323.867 282.878 334.464 282.878C345.06 282.878 363.247 310.658 363.247 321.254L344.056 474.751Z" fill="#231F20"/>
</g>
<path d="M330.488 461.184C330.488 471.78 331.492 480.368 320.896 480.368C310.3 480.368 311.304 471.78 311.304 461.184L292.112 307.686C292.112 297.09 310.3 269.311 320.896 269.311C331.492 269.311 349.68 297.09 349.68 307.687L330.488 461.184Z" fill="#00B894"/>
<g opacity="0.2">
<path opacity="0.2" d="M373.864 214.088C373.864 192.894 356.683 175.713 335.489 175.713C314.295 175.713 297.114 192.894 297.114 214.088C297.114 235.281 314.295 252.462 335.489 252.462C356.683 252.462 373.864 235.281 373.864 214.088Z" fill="#231F20"/>
</g>
<g opacity="0.2">
<path opacity="0.2" d="M354.675 137.336C354.675 126.739 346.085 118.149 335.488 118.149C324.891 118.149 316.301 126.739 316.301 137.336C316.301 147.933 324.891 156.524 335.488 156.524C346.085 156.524 354.675 147.933 354.675 137.336Z" fill="#231F20"/>
</g>
<path d="M360.296 200.52C360.296 179.326 343.115 162.146 321.921 162.146C300.728 162.146 283.547 179.326 283.547 200.52C283.547 221.714 300.728 238.895 321.921 238.895C343.115 238.895 360.296 221.714 360.296 200.52Z" fill="#FBFBFB"/>
<path d="M341.108 123.769C341.108 113.172 332.517 104.581 321.92 104.581C311.324 104.581 302.733 113.172 302.733 123.769C302.733 134.365 311.324 142.956 321.92 142.956C332.517 142.956 341.108 134.365 341.108 123.769Z" fill="#FBFBFB"/>
</svg>
